<?xml version="1.0" standalone="no"?>
<!DOCTYPE svg PUBLIC "-//W3C//DTD SVG 20010904//EN"
 "http://www.w3.org/TR/2001/REC-SVG-20010904/DTD/svg10.dtd">
<svg version="1.0" xmlns="http://www.w3.org/2000/svg"
 width="280.000000pt" height="280.000000pt" viewBox="0 0 280.000000 280.000000"
 preserveAspectRatio="xMidYMid meet">
<metadata>
Created by potrace 1.11, written by Peter Selinger 2001-2013
</metadata>
<g transform="translate(0.000000,280.000000) scale(0.100000,-0.100000)"
fill="#000000" stroke="none">
<path d="M0 1400 l0 -1400 1400 0 1400 0 0 1400 0 1400 -1400 0 -1400 0 0
-1400z m1665 575 l0 -300 305 -5 305 -5 0 -265 0 -265 -300 0 -300 0 -5 -305
-5 -305 -265 0 -265 0 0 300 0 300 -305 5 -305 5 0 265 0 265 305 3 305 2 -3
292 c-1 161 0 298 2 305 4 11 58 13 268 11 l263 -3 0 -300z"/>
</g>
</svg>
